<svg xmlns="http://www.w3.org/2000/svg" viewBox="0 0 64 64" role="img" aria-label="Lobster Lifeguard favicon">
  <defs>
    <linearGradient id="bg" x1="0" y1="0" x2="1" y2="1">
      <stop offset="0" stop-color="#0a1220" />
      <stop offset="1" stop-color="#121f34" />
    </linearGradient>
  </defs>
  <rect width="64" height="64" rx="14" fill="url(#bg)" />
  <circle cx="32" cy="32" r="24" fill="none" stroke="#ffe1ab" stroke-width="10" />
  <path d="M32 8a24 24 0 0 1 13 3.8l-4.6 8A14 14 0 0 0 32 18z" fill="#ff503f" />
  <path d="M56 32a24 24 0 0 1-3.8 13l-8-4.6A14 14 0 0 0 46 32z" fill="#ff503f" />
  <path d="M32 56a24 24 0 0 1-13-3.8l4.6-8A14 14 0 0 0 32 46z" fill="#ff503f" />
  <path d="M8 32a24 24 0 0 1 3.8-13l8 4.6A14 14 0 0 0 18 32z" fill="#ff503f" />
  <circle cx="32" cy="32" r="12" fill="#091324" />
  <path d="M38.5 36.5c5.2-7.2 13.7-5.8 12.2 1.9-1 5.1-6.2 9.2-11.8 7.2l-3-1.2-3 1.2c-5.6 2-10.8-2.1-11.8-7.2-1.5-7.7 7-9.1 12.2-1.9l2.6-6.8z" fill="#ff5745" />
  <circle cx="28" cy="32" r="1.1" fill="#ffd2c5" />
</svg>
